<svg id="visual" viewBox="0 0 960 300" width="960" height="300" xmlns="http://www.w3.org/2000/svg" xmlns:xlink="http://www.w3.org/1999/xlink" version="1.1"><path d="M0 40L14.5 38.5C29 37 58 34 87.2 36.5C116.3 39 145.7 47 174.8 50.5C204 54 233 53 262 49.5C291 46 320 40 349 38C378 36 407 38 436.2 35.5C465.3 33 494.7 26 523.8 26.5C553 27 582 35 611 37C640 39 669 35 698 31C727 27 756 23 785.2 27C814.3 31 843.7 43 872.8 46C902 49 931 43 945.5 40L960 37L960 0L945.5 0C931 0 902 0 872.8 0C843.7 0 814.3 0 785.2 0C756 0 727 0 698 0C669 0 640 0 611 0C582 0 553 0 523.8 0C494.7 0 465.3 0 436.2 0C407 0 378 0 349 0C320 0 291 0 262 0C233 0 204 0 174.8 0C145.7 0 116.3 0 87.2 0C58 0 29 0 14.5 0L0 0Z" fill="#50b89f"></path><path d="M0 58L14.5 61.5C29 65 58 72 87.2 75C116.3 78 145.7 77 174.8 76C204 75 233 74 262 74.5C291 75 320 77 349 73.5C378 70 407 61 436.2 56C465.3 51 494.7 50 523.8 54.5C553 59 582 69 611 73.5C640 78 669 77 698 75C727 73 756 70 785.2 73C814.3 76 843.7 85 872.8 87C902 89 931 84 945.5 81.5L960 79L960 35L945.5 38C931 41 902 47 872.8 44C843.7 41 814.3 29 785.2 25C756 21 727 25 698 29C669 33 640 37 611 35C582 33 553 25 523.8 24.5C494.7 24 465.3 31 436.2 33.5C407 36 378 34 349 36C320 38 291 44 262 47.5C233 51 204 52 174.8 48.5C145.7 45 116.3 37 87.2 34.5C58 32 29 35 14.5 36.5L0 38Z" fill="#44ab93"></path><path d="M0 79L14.5 84C29 89 58 99 87.2 102C116.3 105 145.7 101 174.8 99.5C204 98 233 99 262 99C291 99 320 98 349 97.5C378 97 407 97 436.2 94.5C465.3 92 494.7 87 523.8 86.5C553 86 582 90 611 96C640 102 669 110 698 111.5C727 113 756 108 785.2 109.5C814.3 111 843.7 119 872.8 117C902 115 931 103 945.5 97L960 91L960 77L945.5 79.5C931 82 902 87 872.8 85C843.7 83 814.3 74 785.2 71C756 68 727 71 698 73C669 75 640 76 611 71.5C582 67 553 57 523.8 52.5C494.7 48 465.3 49 436.2 54C407 59 378 68 349 71.5C320 75 291 73 262 72.5C233 72 204 73 174.8 74C145.7 75 116.3 76 87.2 73C58 70 29 63 14.5 59.5L0 56Z" fill="#379e87"></path><path d="M0 133L14.5 143C29 153 58 173 87.2 184.5C116.3 196 145.7 199 174.8 200.5C204 202 233 202 262 197C291 192 320 182 349 180C378 178 407 184 436.2 181C465.3 178 494.7 166 523.8 163C553 160 582 166 611 167C640 168 669 164 698 175C727 186 756 212 785.2 215.5C814.3 219 843.7 200 872.8 182.5C902 165 931 149 945.5 141L960 133L960 89L945.5 95C931 101 902 113 872.8 115C843.7 117 814.3 109 785.2 107.5C756 106 727 111 698 109.5C669 108 640 100 611 94C582 88 553 84 523.8 84.5C494.7 85 465.3 90 436.2 92.5C407 95 378 95 349 95.5C320 96 291 97 262 97C233 97 204 96 174.8 97.5C145.7 99 116.3 103 87.2 100C58 97 29 87 14.5 82L0 77Z" fill="#29917b"></path><path d="M0 277L14.5 270.5C29 264 58 251 87.2 245C116.3 239 145.7 240 174.8 241.5C204 243 233 245 262 247.5C291 250 320 253 349 257.5C378 262 407 268 436.2 266C465.3 264 494.7 254 523.8 245.5C553 237 582 230 611 233.5C640 237 669 251 698 261C727 271 756 277 785.2 273C814.3 269 843.7 255 872.8 251.5C902 248 931 255 945.5 258.5L960 262L960 131L945.5 139C931 147 902 163 872.8 180.5C843.7 198 814.3 217 785.2 213.5C756 210 727 184 698 173C669 162 640 166 611 165C582 164 553 158 523.8 161C494.7 164 465.3 176 436.2 179C407 182 378 176 349 178C320 180 291 190 262 195C233 200 204 200 174.8 198.5C145.7 197 116.3 194 87.2 182.5C58 171 29 151 14.5 141L0 131Z" fill="#198470"></path><path d="M0 301L14.5 301C29 301 58 301 87.2 301C116.3 301 145.7 301 174.8 301C204 301 233 301 262 301C291 301 320 301 349 301C378 301 407 301 436.2 301C465.3 301 494.7 301 523.8 301C553 301 582 301 611 301C640 301 669 301 698 301C727 301 756 301 785.2 301C814.3 301 843.7 301 872.8 301C902 301 931 301 945.5 301L960 301L960 260L945.5 256.5C931 253 902 246 872.8 249.5C843.7 253 814.3 267 785.2 271C756 275 727 269 698 259C669 249 640 235 611 231.5C582 228 553 235 523.8 243.5C494.7 252 465.3 262 436.2 264C407 266 378 260 349 255.5C320 251 291 248 262 245.5C233 243 204 241 174.8 239.5C145.7 238 116.3 237 87.2 243C58 249 29 262 14.5 268.5L0 275Z" fill="#017865"></path></svg>