<svg id="visual" viewBox="0 0 960 300" width="960" height="300" xmlns="http://www.w3.org/2000/svg" xmlns:xlink="http://www.w3.org/1999/xlink" version="1.1"><path d="M0 34L192 34L384 76L576 52L768 82L960 67L960 0L768 0L576 0L384 0L192 0L0 0Z" fill="#00514a"></path><path d="M0 142L192 133L384 142L576 103L768 181L960 133L960 65L768 80L576 50L384 74L192 32L0 32Z" fill="#15695f"></path><path d="M0 241L192 217L384 220L576 208L768 226L960 214L960 131L768 179L576 101L384 140L192 131L0 140Z" fill="#298374"></path><path d="M0 277L192 268L384 268L576 247L768 283L960 229L960 212L768 224L576 206L384 218L192 215L0 239Z" fill="#3c9d89"></path><path d="M0 301L192 301L384 301L576 301L768 301L960 301L960 227L768 281L576 245L384 266L192 266L0 275Z" fill="#50b89f"></path></svg>